<svg id="Layer_1" data-name="Layer 1" xmlns="http://www.w3.org/2000/svg" viewBox="0 0 683.27 205"><defs><style>.cls-1{fill:#005c85;}.cls-2{fill:#008c9d;}.cls-3{fill:none;}</style></defs><title>Final_safe_stack_Logo</title><path class="cls-1" d="M226.25,318.76a3.36,3.36,0,0,1,3.35,3.35v10.51h-4.76V361.5h4.76v62.72h-4.76v28.88h4.76v10.57a3.36,3.36,0,0,1-3.35,3.35H84.71a3.36,3.36,0,0,1-3.35-3.35V322.12a3.36,3.36,0,0,1,3.35-3.35H226.25m0-7H84.71A10.31,10.31,0,0,0,74.4,322.12V463.67A10.31,10.31,0,0,0,84.71,474H226.25a10.31,10.31,0,0,0,10.31-10.31V446.14h-4.76v-15h4.76V354.55h-4.76v-15h4.76V322.12a10.31,10.31,0,0,0-10.31-10.31Z" transform="translate(-59.9 -297.31)"/><path class="cls-1" d="M232.24,297.31H78.72A18.85,18.85,0,0,0,59.9,316.13V469.65a18.85,18.85,0,0,0,18.82,18.82H232.24a18.85,18.85,0,0,0,18.82-18.82V316.13A18.85,18.85,0,0,0,232.24,297.31Zm16.43,57.24h-4v76.63h4v15h-4v23.51a12.45,12.45,0,0,1-12.44,12.44H78.72a12.45,12.45,0,0,1-12.44-12.44V316.13a12.45,12.45,0,0,1,12.44-12.44H232.24a12.45,12.45,0,0,1,12.44,12.44v23.45h4Z" transform="translate(-59.9 -297.31)"/><path class="cls-2" d="M19.46,197.72H50.59a0,0,0,0,1,0,0v2.71A4.58,4.58,0,0,1,46,205H24a4.58,4.58,0,0,1-4.58-4.58v-2.71a0,0,0,0,1,0,0Z"/><path class="cls-2" d="M141.58,197.72h31.13a0,0,0,0,1,0,0v2.71a4.58,4.58,0,0,1-4.58,4.58h-22a4.58,4.58,0,0,1-4.58-4.58v-2.71A0,0,0,0,1,141.58,197.72Z"/><path class="cls-1" d="M210.55,398.32a3.3,3.3,0,1,0,0-6.6H190.88a36.23,36.23,0,0,0-3-11.43l22.2-12.83a3.93,3.93,0,1,0-3.93-6.8L184,373.5a36.76,36.76,0,0,0-8.24-8.13l9.81-17a3.3,3.3,0,1,0-5.72-3.31L170.05,362a36.13,36.13,0,0,0-11.53-3.24V333.15a3.93,3.93,0,0,0-7.85,0v25.63A36.12,36.12,0,0,0,139.3,362l-9.78-16.75a3.3,3.3,0,0,0-5.7,3.33l9.78,16.74a36.77,36.77,0,0,0-8.59,8.51l-22.34-12.62A3.93,3.93,0,1,0,98.8,368l22.32,12.61a36.21,36.21,0,0,0-2.82,11.1H99a3.3,3.3,0,1,0,0,6.6h19.29a36.22,36.22,0,0,0,3,11.43l-22.2,12.83a3.93,3.93,0,1,0,3.93,6.8l22.21-12.84a36.75,36.75,0,0,0,8.51,8.32L124,441.64a3.3,3.3,0,1,0,5.72,3.31l9.71-16.79a36.14,36.14,0,0,0,11.24,3.1v25.63a3.93,3.93,0,0,0,7.85,0V431.25a36.11,36.11,0,0,0,11.67-3.31l9.87,16.89a3.3,3.3,0,0,0,5.7-3.33l-9.89-16.93a36.77,36.77,0,0,0,8.32-8.33l22.34,12.62a3.93,3.93,0,1,0,3.86-6.83l-22.32-12.61a36.2,36.2,0,0,0,2.82-11.1Zm-56,28.66a32,32,0,1,1,32-32A32,32,0,0,1,154.59,427Z" transform="translate(-59.9 -297.31)"/><path class="cls-3" d="M192.42,379.64l-1.11.64-5.38-9.41,1.1-.63a40.84,40.84,0,0,0-27-15.69v1.28H149.17v-1.28A40.85,40.85,0,0,0,122,370.42l1.11.62-5.33,9.44-1.11-.63a40.7,40.7,0,0,0,.09,30.54l1.11-.64,5.38,9.41-1.1.63a40.84,40.84,0,0,0,27,15.69v-1.28H160v1.28a40.85,40.85,0,0,0,27.15-15.87l-1.11-.62,5.33-9.44,1.11.63a40.7,40.7,0,0,0-.09-30.54Z" transform="translate(-59.9 -297.31)"/><path class="cls-2" d="M149.17,354.55v-9a49.82,49.82,0,0,0-35,20.48l7.86,4.44A40.85,40.85,0,0,1,149.17,354.55Z" transform="translate(-59.9 -297.31)"/><path class="cls-2" d="M122.16,419.8l-7.84,4.48a49.82,49.82,0,0,0,34.85,20.25v-9A40.84,40.84,0,0,1,122.16,419.8Z" transform="translate(-59.9 -297.31)"/><path class="cls-2" d="M113.76,395a40.61,40.61,0,0,1,2.93-15.16l-7.88-4.44a49.71,49.71,0,0,0,.12,39.47l7.84-4.48A40.61,40.61,0,0,1,113.76,395Z" transform="translate(-59.9 -297.31)"/><path class="cls-2" d="M187,370.24l7.84-4.48A49.82,49.82,0,0,0,160,345.51v9A40.84,40.84,0,0,1,187,370.24Z" transform="translate(-59.9 -297.31)"/><path class="cls-2" d="M195.43,395a40.61,40.61,0,0,1-2.93,15.16l7.88,4.44a49.71,49.71,0,0,0-.12-39.47l-7.84,4.48A40.61,40.61,0,0,1,195.43,395Z" transform="translate(-59.9 -297.31)"/><path class="cls-2" d="M160,435.49v9a49.82,49.82,0,0,0,35-20.48l-7.86-4.44A40.85,40.85,0,0,1,160,435.49Z" transform="translate(-59.9 -297.31)"/><path class="cls-1" d="M154.78,369.11a25.61,25.61,0,1,0,25.61,25.61A25.61,25.61,0,0,0,154.78,369.11Zm4.28,38.26h-8.38l2.19-14.27A5.67,5.67,0,1,1,157,393Z" transform="translate(-59.9 -297.31)"/><path class="cls-2" d="M324.34,422.84q-3.55-3.21-3.55-9.51V392.24q0-4-1.49-5.44t-5.73-1.43V375.05q4.24,0,5.73-1.43t1.49-5.44V347.09q0-6.3,3.55-9.51a13.16,13.16,0,0,1,9.17-3.21h6.42v10.31h-1.83a5.65,5.65,0,0,0-4.58,1.78q-1.49,1.78-1.49,6.36V370q0,8-7,10.08v.23q7,2.06,7,10.08V407.6q0,4.59,1.49,6.36a5.64,5.64,0,0,0,4.58,1.78h1.83V426h-6.42A13.15,13.15,0,0,1,324.34,422.84Z" transform="translate(-59.9 -297.31)"/><path class="cls-1" d="M352.88,416.25q-4.7-5.21-4.7-15v-4.58H360.1v5.5q0,7.79,6.53,7.79a6.14,6.14,0,0,0,4.87-1.89q1.66-1.89,1.66-6.13a17,17,0,0,0-2.29-8.88q-2.29-3.84-8.48-9.23-7.79-6.88-10.89-12.43a25.35,25.35,0,0,1-3.09-12.55q0-9.51,4.81-14.73t14-5.21q9.05,0,13.69,5.21t4.64,15v3.32H373.62v-4.13q0-4.12-1.61-6a5.81,5.81,0,0,0-4.7-1.89q-6.3,0-6.3,7.68a15.13,15.13,0,0,0,2.35,8.14q2.35,3.78,8.54,9.17,7.91,6.88,10.89,12.49a27.75,27.75,0,0,1,3,13.18q0,9.86-4.87,15.13t-14.15,5.27Q357.57,421.46,352.88,416.25Z" transform="translate(-59.9 -297.31)"/><path class="cls-1" d="M405.25,340.1h17.07l13.06,80.22H422.78l-2.29-15.93v.23H406.17l-2.29,15.7H392.18ZM419,393.73l-5.62-39.65h-.23l-5.5,39.65Z" transform="translate(-59.9 -297.31)"/><path class="cls-1" d="M444.32,340.1h33.35v11.46H456.93v22.35H473.2v11.46H456.93v35H444.32Z" transform="translate(-59.9 -297.31)"/><path class="cls-1" d="M486.61,340.1H521v11.46H499.22v21.2h17.3v11.46h-17.3v24.64H521v11.46H486.61Z" transform="translate(-59.9 -297.31)"/><path class="cls-2" d="M530.39,415.74h1.83A5.64,5.64,0,0,0,536.8,414q1.49-1.77,1.49-6.36V390.41q0-8,7-10.08v-.23q-7-2.06-7-10.08V352.82q0-4.58-1.49-6.36a5.65,5.65,0,0,0-4.58-1.78h-1.83V334.37h6.42a13.16,13.16,0,0,1,9.17,3.21q3.55,3.21,3.55,9.51v21.09q0,4,1.49,5.44t5.73,1.43v10.31q-4.24,0-5.73,1.43t-1.49,5.44v21.09q0,6.3-3.55,9.51A13.16,13.16,0,0,1,536.8,426h-6.42Z" transform="translate(-59.9 -297.31)"/><path class="cls-1" d="M569.23,416.25q-4.7-5.21-4.7-15v-4.58h11.92v5.5q0,7.79,6.53,7.79a6.14,6.14,0,0,0,4.87-1.89q1.66-1.89,1.66-6.13a17,17,0,0,0-2.29-8.88q-2.29-3.84-8.48-9.23Q571,377,567.86,371.44a25.35,25.35,0,0,1-3.09-12.55q0-9.51,4.81-14.73t14-5.21q9.05,0,13.69,5.21t4.64,15v3.32H590v-4.13q0-4.12-1.61-6a5.81,5.81,0,0,0-4.7-1.89q-6.3,0-6.3,7.68a15.13,15.13,0,0,0,2.35,8.14q2.35,3.78,8.54,9.17,7.91,6.88,10.89,12.49a27.75,27.75,0,0,1,3,13.18q0,9.86-4.87,15.13t-14.15,5.27Q573.93,421.46,569.23,416.25Z" transform="translate(-59.9 -297.31)"/><path class="cls-1" d="M622.06,351.56H608.89V340.1h39v11.46H634.67v68.76H622.06Z" transform="translate(-59.9 -297.31)"/><path class="cls-1" d="M661.26,340.1h17.07l13.06,80.22H678.79l-2.29-15.93v.23H662.18l-2.29,15.7H648.19ZM675,393.73l-5.62-39.65h-.23l-5.5,39.65Z" transform="translate(-59.9 -297.31)"/><path class="cls-1" d="M700.33,340.1h12.61v33.81l16-33.81h12.61l-15,29.45,15.24,50.77H728.64L718,384.56l-5,10.2v25.56H700.33Z" transform="translate(-59.9 -297.31)"/><path class="cls-2" d="M328.2,459.93a7.92,7.92,0,0,1-4.42-1.19,6.23,6.23,0,0,1-2.54-3.25l2.55-1.5a4.32,4.32,0,0,0,4.49,3,4,4,0,0,0,2.52-.66,2.07,2.07,0,0,0,.84-1.71,1.88,1.88,0,0,0-.9-1.69,14,14,0,0,0-3.2-1.27l-2.07-.77a8,8,0,0,1-1.7-.91,3.84,3.84,0,0,1-1.33-1.51,4.78,4.78,0,0,1-.44-2.12,4.68,4.68,0,0,1,1.7-3.81,6.23,6.23,0,0,1,4.1-1.41,6.8,6.8,0,0,1,3.79,1.06,6.92,6.92,0,0,1,2.5,2.92l-2.5,1.44a3.89,3.89,0,0,0-3.79-2.53,3.25,3.25,0,0,0-2.06.61,2,2,0,0,0-.77,1.64,1.81,1.81,0,0,0,.79,1.55,10.64,10.64,0,0,0,2.87,1.2l1.48.56,1.35.51a4.57,4.57,0,0,1,1.31.7,9.94,9.94,0,0,1,.93.92,3.15,3.15,0,0,1,.7,1.25,5.71,5.71,0,0,1,.21,1.59,4.73,4.73,0,0,1-1.77,3.88A7.12,7.12,0,0,1,328.2,459.93Z" transform="translate(-59.9 -297.31)"/><path class="cls-2" d="M342.24,454.33a3.54,3.54,0,0,0,1.42,2.26,4.56,4.56,0,0,0,2.71.79,3.78,3.78,0,0,0,3.33-1.6l2.3,1.34a6.38,6.38,0,0,1-5.65,2.81,6.9,6.9,0,0,1-5.08-1.92,6.57,6.57,0,0,1-1.93-4.86,6.64,6.64,0,0,1,1.91-4.84,6.56,6.56,0,0,1,4.9-1.95,6,6,0,0,1,4.66,2,6.89,6.89,0,0,1,1.82,4.83,8.68,8.68,0,0,1-.1,1.16Zm0-2.27h7.58a3.59,3.59,0,0,0-3.69-3.17,3.92,3.92,0,0,0-2.58.85A3.83,3.83,0,0,0,342.21,452.06Z" transform="translate(-59.9 -297.31)"/><path class="cls-2" d="M363.78,459.93a6.79,6.79,0,1,1,0-13.57,6.68,6.68,0,0,1,3.43.9,5.83,5.83,0,0,1,2.32,2.42l-2.4,1.39a3.3,3.3,0,0,0-1.33-1.46,3.94,3.94,0,0,0-2.05-.53,3.85,3.85,0,0,0-2.85,1.16,4.21,4.21,0,0,0,0,5.78,3.84,3.84,0,0,0,2.85,1.16,4,4,0,0,0,2.05-.54,3.54,3.54,0,0,0,1.38-1.44l2.4,1.37a6.14,6.14,0,0,1-2.37,2.45A6.69,6.69,0,0,1,363.78,459.93Z" transform="translate(-59.9 -297.31)"/><path class="cls-2" d="M383.08,446.69h2.79v12.9h-2.79v-1.65a4.39,4.39,0,0,1-4,2,4.75,4.75,0,0,1-3.59-1.42,5.38,5.38,0,0,1-1.37-3.9v-7.92h2.79v7.64a3,3,0,0,0,.77,2.22,2.86,2.86,0,0,0,2.12.77,3.18,3.18,0,0,0,2.37-.92,3.84,3.84,0,0,0,.9-2.8Z" transform="translate(-59.9 -297.31)"/><path class="cls-2" d="M394.61,448.86a4,4,0,0,1,4-2.4v3a4.13,4.13,0,0,0-2.79.76,3.29,3.29,0,0,0-1.19,2.85v6.5h-2.79v-12.9h2.79Z" transform="translate(-59.9 -297.31)"/><path class="cls-2" d="M405,454.33a3.54,3.54,0,0,0,1.42,2.26,4.56,4.56,0,0,0,2.71.79,3.78,3.78,0,0,0,3.33-1.6l2.3,1.34a6.38,6.38,0,0,1-5.65,2.81A6.9,6.9,0,0,1,404,458a6.57,6.57,0,0,1-1.93-4.86,6.64,6.64,0,0,1,1.91-4.84,6.56,6.56,0,0,1,4.9-1.95,6,6,0,0,1,4.66,2,6.89,6.89,0,0,1,1.82,4.83,8.68,8.68,0,0,1-.1,1.16Zm0-2.27h7.58a3.59,3.59,0,0,0-3.69-3.17,3.92,3.92,0,0,0-2.58.85A3.83,3.83,0,0,0,404.93,452.06Z" transform="translate(-59.9 -297.31)"/><path class="cls-2" d="M436.92,441.53a8.15,8.15,0,0,1,6.18,2.61,9.59,9.59,0,0,1,0,12.83,8.13,8.13,0,0,1-6.18,2.62h-7.1V441.53Zm0,15.22a5.4,5.4,0,0,0,4.17-1.75,6.93,6.93,0,0,0,0-8.89,5.42,5.42,0,0,0-4.17-1.74H432.8v12.38Z" transform="translate(-59.9 -297.31)"/><path class="cls-2" d="M453,454.33a3.54,3.54,0,0,0,1.42,2.26,4.56,4.56,0,0,0,2.71.79,3.78,3.78,0,0,0,3.33-1.6l2.3,1.34a6.38,6.38,0,0,1-5.65,2.81A6.9,6.9,0,0,1,452,458a6.57,6.57,0,0,1-1.93-4.86,6.64,6.64,0,0,1,1.91-4.84,6.56,6.56,0,0,1,4.9-1.95,6,6,0,0,1,4.66,2,6.89,6.89,0,0,1,1.82,4.83,8.68,8.68,0,0,1-.1,1.16Zm0-2.27h7.58a3.59,3.59,0,0,0-3.69-3.17,3.92,3.92,0,0,0-2.58.85A3.83,3.83,0,0,0,453,452.06Z" transform="translate(-59.9 -297.31)"/><path class="cls-2" d="M468.53,459.59V440.76h2.79v18.83Z" transform="translate(-59.9 -297.31)"/><path class="cls-2" d="M479.44,454.33a3.54,3.54,0,0,0,1.42,2.26,4.56,4.56,0,0,0,2.71.79,3.78,3.78,0,0,0,3.33-1.6l2.3,1.34a6.38,6.38,0,0,1-5.65,2.81,6.9,6.9,0,0,1-5.08-1.92,6.57,6.57,0,0,1-1.93-4.86,6.64,6.64,0,0,1,1.91-4.84,6.56,6.56,0,0,1,4.9-1.95,6,6,0,0,1,4.66,2,6.89,6.89,0,0,1,1.82,4.83,8.68,8.68,0,0,1-.1,1.16Zm0-2.27H487a3.59,3.59,0,0,0-3.69-3.17,3.92,3.92,0,0,0-2.58.85A3.83,3.83,0,0,0,479.42,452.06Z" transform="translate(-59.9 -297.31)"/><path class="cls-2" d="M505.16,446.69h2.74V459a5.49,5.49,0,0,1-1.94,4.52,7.2,7.2,0,0,1-4.7,1.57q-4.46,0-6.11-3.12l2.4-1.39a3.83,3.83,0,0,0,3.77,2,4,4,0,0,0,2.83-.94,3.39,3.39,0,0,0,1-2.62v-1.57a5.15,5.15,0,0,1-4.49,2.24,6.17,6.17,0,0,1-4.62-1.95,6.83,6.83,0,0,1,0-9.42,6.17,6.17,0,0,1,4.62-1.95,5.15,5.15,0,0,1,4.49,2.24Zm-7,9.21a4.27,4.27,0,0,0,5.86,0,4.14,4.14,0,0,0,0-5.78,4.27,4.27,0,0,0-5.86,0,4.14,4.14,0,0,0,0,5.78Z" transform="translate(-59.9 -297.31)"/><path class="cls-2" d="M524.08,446.69h2.79v12.9h-2.79v-1.86a5.22,5.22,0,0,1-4.51,2.19,6,6,0,0,1-4.54-2,7.11,7.11,0,0,1,0-9.64,6.07,6.07,0,0,1,4.54-2,5.24,5.24,0,0,1,4.51,2.17Zm-7,9.4a4.21,4.21,0,0,0,5.83,0,4.34,4.34,0,0,0,0-5.91,4.21,4.21,0,0,0-5.83,0,4.34,4.34,0,0,0,0,5.91Z" transform="translate(-59.9 -297.31)"/><path class="cls-2" d="M540,449.38h-3.2v6.19a1.54,1.54,0,0,0,.36,1.15,1.62,1.62,0,0,0,1.07.39,17.55,17.55,0,0,0,1.77,0v2.5q-3.2.39-4.59-.55T534,455.57v-6.19h-2.37v-2.68H534v-2.79l2.79-.83v3.61H540Z" transform="translate(-59.9 -297.31)"/><path class="cls-2" d="M547.9,444.23a1.78,1.78,0,0,1-3-1.25,1.73,1.73,0,0,1,.52-1.25,1.77,1.77,0,0,1,2.53,0,1.73,1.73,0,0,1,.52,1.25A1.71,1.71,0,0,1,547.9,444.23Zm-2.64,15.36v-12.9H548v12.9Z" transform="translate(-59.9 -297.31)"/><path class="cls-2" d="M560.07,459.93a6.61,6.61,0,0,1-4.82-2,6.85,6.85,0,0,1,0-9.65,6.93,6.93,0,0,1,9.66,0,6.79,6.79,0,0,1-4.84,11.61Zm-2.86-3.87a4.11,4.11,0,0,0,5.73,0,4.24,4.24,0,0,0,0-5.83,4.11,4.11,0,0,0-5.73,0,4.24,4.24,0,0,0,0,5.83Z" transform="translate(-59.9 -297.31)"/><path class="cls-2" d="M578.9,446.36a4.76,4.76,0,0,1,3.59,1.42,5.38,5.38,0,0,1,1.37,3.9v7.92h-2.79V452a3,3,0,0,0-.77-2.22,2.85,2.85,0,0,0-2.12-.77,3.19,3.19,0,0,0-2.37.92,3.85,3.85,0,0,0-.9,2.8v6.91h-2.79v-12.9h2.79v1.65A4.39,4.39,0,0,1,578.9,446.36Z" transform="translate(-59.9 -297.31)"/><path class="cls-2" d="M613.73,458.69l-2.4,1.39-1.72-1.85a7.87,7.87,0,0,1-5,1.69,6.79,6.79,0,0,1-4.48-1.42,4.75,4.75,0,0,1-1.72-3.87,5.75,5.75,0,0,1,.81-3,5.9,5.9,0,0,1,2.36-2.19,5.22,5.22,0,0,1-1-3.15,4.72,4.72,0,0,1,1.59-3.69A5.65,5.65,0,0,1,606,441.2a6,6,0,0,1,3.35,1,5.82,5.82,0,0,1,2.22,2.79l-2.53,1.45a3.49,3.49,0,0,0-1.16-1.7,3,3,0,0,0-1.86-.62,2.69,2.69,0,0,0-1.82.63,2.09,2.09,0,0,0-.74,1.66,2.79,2.79,0,0,0,.23,1.09,3,3,0,0,0,.52.87l.82.89,4.38,4.78a10.94,10.94,0,0,0,.93-3.14l2.52,1.45a11.82,11.82,0,0,1-1.5,3.82Zm-9-1.52a4.76,4.76,0,0,0,3-1l-4.43-4.75a3.13,3.13,0,0,0-1.9,3,2.51,2.51,0,0,0,.88,2A3.7,3.7,0,0,0,604.72,457.17Z" transform="translate(-59.9 -297.31)"/><path class="cls-2" d="M638.29,459.59,634.47,453H631v6.58h-3V441.53h7.22a5.77,5.77,0,0,1,5.8,5.8,5.42,5.42,0,0,1-1,3.16,5.67,5.67,0,0,1-2.59,2.08l4.1,7ZM631,444.32v6h4.26a2.66,2.66,0,0,0,2-.88,3.19,3.19,0,0,0,0-4.28,2.66,2.66,0,0,0-2-.88Z" transform="translate(-59.9 -297.31)"/><path class="cls-2" d="M647.86,454.33a3.54,3.54,0,0,0,1.42,2.26,4.56,4.56,0,0,0,2.71.79,3.78,3.78,0,0,0,3.33-1.6l2.3,1.34a6.38,6.38,0,0,1-5.65,2.81,6.9,6.9,0,0,1-5.08-1.92,6.57,6.57,0,0,1-1.93-4.86,6.64,6.64,0,0,1,1.91-4.84,6.56,6.56,0,0,1,4.9-1.95,6,6,0,0,1,4.66,2,6.89,6.89,0,0,1,1.82,4.83,8.68,8.68,0,0,1-.1,1.16Zm0-2.27h7.58a3.59,3.59,0,0,0-3.69-3.17,3.92,3.92,0,0,0-2.58.85A3.83,3.83,0,0,0,647.84,452.06Z" transform="translate(-59.9 -297.31)"/><path class="cls-2" d="M677.74,446.69h2.94l-4.05,12.9h-2.74l-2.73-8.81-2.73,8.81h-3l-3.75-12.9h2.95l2.5,8.9,2.71-8.9h2.67l2.68,8.9Z" transform="translate(-59.9 -297.31)"/><path class="cls-2" d="M695.15,446.69h2.79v12.9h-2.79v-1.86a5.22,5.22,0,0,1-4.51,2.19,6,6,0,0,1-4.54-2,7.11,7.11,0,0,1,0-9.64,6.07,6.07,0,0,1,4.54-2,5.24,5.24,0,0,1,4.51,2.17Zm-7,9.4a4.21,4.21,0,0,0,5.83,0,4.34,4.34,0,0,0,0-5.91,4.21,4.21,0,0,0-5.83,0,4.34,4.34,0,0,0,0,5.91Z" transform="translate(-59.9 -297.31)"/><path class="cls-2" d="M706.69,448.86a4,4,0,0,1,4-2.4v3a4.13,4.13,0,0,0-2.79.76,3.29,3.29,0,0,0-1.19,2.85v6.5H703.9v-12.9h2.79Z" transform="translate(-59.9 -297.31)"/><path class="cls-2" d="M725.06,441.53h2.79v18.06h-2.79v-1.86a5.22,5.22,0,0,1-4.51,2.19,6,6,0,0,1-4.54-2,7.11,7.11,0,0,1,0-9.64,6.07,6.07,0,0,1,4.54-2,5.24,5.24,0,0,1,4.51,2.17Zm-7,14.56a4.21,4.21,0,0,0,5.83,0,4.34,4.34,0,0,0,0-5.91,4.21,4.21,0,0,0-5.83,0,4.34,4.34,0,0,0,0,5.91Z" transform="translate(-59.9 -297.31)"/><path class="cls-2" d="M736.23,450.24a1.12,1.12,0,0,0,.71,1,10.56,10.56,0,0,0,1.72.68l2.05.63a3.56,3.56,0,0,1,1.75,1.2,3.73,3.73,0,0,1-.73,5.12,5.89,5.89,0,0,1-3.6,1.06,6.38,6.38,0,0,1-3.28-.8,4.68,4.68,0,0,1-2-2.22l2.4-1.39a2.74,2.74,0,0,0,2.86,1.86q2.19,0,2.19-1.45a1.14,1.14,0,0,0-.71-1,9.29,9.29,0,0,0-1.71-.7l-2.05-.63a3.68,3.68,0,0,1-1.76-1.16,3.18,3.18,0,0,1-.71-2.13,3.48,3.48,0,0,1,1.35-2.86,5.22,5.22,0,0,1,3.37-1.08,5.68,5.68,0,0,1,2.85.71,4.83,4.83,0,0,1,1.92,2l-2.35,1.32a2.44,2.44,0,0,0-2.42-1.47,2.46,2.46,0,0,0-1.34.34A1.12,1.12,0,0,0,736.23,450.24Z" transform="translate(-59.9 -297.31)"/></svg>