<?xml version="1.0" encoding="utf-8"?>
<!-- Generator: Adobe Illustrator 21.1.0, SVG Export Plug-In . SVG Version: 6.00 Build 0)  -->
<svg version="1.1" id="Layer_1" xmlns="http://www.w3.org/2000/svg" xmlns:xlink="http://www.w3.org/1999/xlink" x="0px" y="0px"
	 viewBox="0 0 800 800" style="enable-background:new 0 0 800 800;" xml:space="preserve">
<style type="text/css">
	.st0{fill:#DFE6DE;}
	.st1{fill:#005C85;}
	.st2{fill:none;}
</style>
<rect width="800" height="800"/>
<g>
	<g>
		<g>
			<path class="st0" d="M226.3,318.8c1.8,0,3.4,1.5,3.4,3.4v10.5h-4.8v7v15v7h4.8v62.7h-4.8v7v15v7h4.8v10.6c0,1.8-1.5,3.4-3.4,3.4
				H84.7c-1.8,0-3.4-1.5-3.4-3.4V322.1c0-1.8,1.5-3.4,3.4-3.4H226.3 M226.3,311.8H84.7c-5.7,0-10.3,4.6-10.3,10.3v141.5
				c0,5.7,4.6,10.3,10.3,10.3h141.5c5.7,0,10.3-4.6,10.3-10.3v-17.5h-4.8v-15h4.8v-76.6h-4.8v-15h4.8v-17.5
				C236.6,316.4,231.9,311.8,226.3,311.8L226.3,311.8z"/>
			<path class="st0" d="M232.2,297.3H78.7c-10.4,0-18.8,8.4-18.8,18.8v153.5c0,10.4,8.4,18.8,18.8,18.8h153.5
				c10.4,0,18.8-8.4,18.8-18.8V316.1C251.1,305.8,242.6,297.3,232.2,297.3z M248.7,354.5h-4v76.6h4v15h-4v23.5
				c0,6.9-5.6,12.4-12.4,12.4H78.7c-6.9,0-12.4-5.6-12.4-12.4V316.1c0-6.9,5.6-12.4,12.4-12.4h153.5c6.9,0,12.4,5.6,12.4,12.4v23.4
				h4V354.5z"/>
		</g>
		<path class="st1" d="M105.9,502.3h-22c-2.5,0-4.6-2-4.6-4.6V495h31.1v2.7C110.5,500.3,108.4,502.3,105.9,502.3z"/>
		<path class="st1" d="M228,502.3h-22c-2.5,0-4.6-2-4.6-4.6V495h31.1v2.7C232.6,500.3,230.6,502.3,228,502.3z"/>
		<path class="st0" d="M210.5,398.3c1.8,0,3.3-1.5,3.3-3.3c0-1.8-1.5-3.3-3.3-3.3h-19.7c-0.4-4-1.4-7.9-3-11.4l22.2-12.8
			c1.9-1.1,2.5-3.5,1.4-5.4c-1.1-1.9-3.5-2.5-5.4-1.4L184,373.5c-2.3-3.1-5.1-5.9-8.2-8.1l9.8-17c0.9-1.6,0.4-3.6-1.2-4.5
			c-1.6-0.9-3.6-0.4-4.5,1.2l-9.8,16.9c-3.6-1.7-7.4-2.8-11.5-3.2v-25.6c0-2.2-1.8-3.9-3.9-3.9c-2.2,0-3.9,1.8-3.9,3.9v25.6
			c-4,0.4-7.8,1.5-11.4,3.2l-9.8-16.8c-0.9-1.6-2.9-2.1-4.5-1.2c-1.6,0.9-2.1,2.9-1.2,4.5l9.8,16.7c-3.3,2.3-6.2,5.2-8.6,8.5
			l-22.3-12.6c-1.9-1.1-4.3-0.4-5.3,1.5c-1.1,1.9-0.4,4.3,1.5,5.3l22.3,12.6c-1.5,3.5-2.5,7.2-2.8,11.1H99c-1.8,0-3.3,1.5-3.3,3.3
			c0,1.8,1.5,3.3,3.3,3.3h19.3c0.4,4,1.4,7.9,3,11.4l-22.2,12.8c-1.9,1.1-2.5,3.5-1.4,5.4c1.1,1.9,3.5,2.5,5.4,1.4l22.2-12.8
			c2.4,3.2,5.2,6,8.5,8.3l-9.7,16.8c-0.9,1.6-0.4,3.6,1.2,4.5c1.6,0.9,3.6,0.4,4.5-1.2l9.7-16.8c3.5,1.6,7.3,2.7,11.2,3.1v25.6
			c0,2.2,1.8,3.9,3.9,3.9c2.2,0,3.9-1.8,3.9-3.9v-25.6c4.1-0.4,8.1-1.6,11.7-3.3l9.9,16.9c0.9,1.6,2.9,2.1,4.5,1.2
			c1.6-0.9,2.1-2.9,1.2-4.5l-9.9-16.9c3.2-2.3,6-5.1,8.3-8.3l22.3,12.6c1.9,1.1,4.3,0.4,5.3-1.5c1.1-1.9,0.4-4.3-1.5-5.3l-22.3-12.6
			c1.5-3.5,2.5-7.2,2.8-11.1H210.5z M154.6,427c-17.6,0-32-14.3-32-32s14.3-32,32-32s32,14.3,32,32S172.2,427,154.6,427z"/>
		<g>
			<path class="st2" d="M192.4,379.6l-1.1,0.6l-5.4-9.4l1.1-0.6c-6.4-8.4-16-14.2-27-15.7v1.3h-10.8v-1.3
				c-11.1,1.5-20.7,7.4-27.2,15.9l1.1,0.6l-5.3,9.4l-1.1-0.6c-1.9,4.7-2.9,9.8-2.9,15.2c0,5.4,1.1,10.6,3,15.4l1.1-0.6l5.4,9.4
				l-1.1,0.6c6.4,8.4,16,14.2,27,15.7v-1.3H160v1.3c11.1-1.5,20.7-7.4,27.2-15.9l-1.1-0.6l5.3-9.4l1.1,0.6c1.9-4.7,2.9-9.8,2.9-15.2
				C195.4,389.6,194.4,384.4,192.4,379.6z"/>
			<path class="st1" d="M149.2,354.6v-9c-14.4,1.6-27,9.3-35,20.5l7.9,4.4C128.5,361.9,138.1,356,149.2,354.6z"/>
			<path class="st1" d="M122.2,419.8l-7.8,4.5c8.1,11.1,20.6,18.7,34.9,20.2v-9C138.2,434,128.6,428.2,122.2,419.8z"/>
			<path class="st1" d="M113.8,395c0-5.4,1-10.5,2.9-15.2l-7.9-4.4c-2.6,6-4,12.6-4,19.6c0,7.1,1.5,13.8,4.1,19.9l7.8-4.5
				C114.8,405.6,113.8,400.5,113.8,395z"/>
			<path class="st1" d="M187,370.2l7.8-4.5c-8.1-11.1-20.6-18.7-34.9-20.2v9C171,356,180.6,361.8,187,370.2z"/>
			<path class="st1" d="M195.4,395c0,5.4-1,10.5-2.9,15.2l7.9,4.4c2.6-6,4-12.6,4-19.6c0-7.1-1.5-13.8-4.1-19.9l-7.8,4.5
				C194.4,384.4,195.4,389.6,195.4,395z"/>
			<path class="st1" d="M160,435.5v9c14.4-1.6,27-9.3,35-20.5l-7.9-4.4C180.7,428.1,171.1,434,160,435.5z"/>
		</g>
		<g>
			<g>
				<path class="st0" d="M154.8,369.1c-14.1,0-25.6,11.5-25.6,25.6c0,14.1,11.5,25.6,25.6,25.6s25.6-11.5,25.6-25.6
					C180.4,380.6,168.9,369.1,154.8,369.1z M159.1,407.4h-8.4l2.2-14.3c-2.2-0.8-3.8-2.9-3.8-5.3c0-3.1,2.5-5.7,5.7-5.7
					s5.7,2.5,5.7,5.7c0,2.4-1.4,4.4-3.5,5.2L159.1,407.4z"/>
			</g>
		</g>
	</g>
</g>
<g>
	<path class="st1" d="M324.3,422.8c-2.4-2.1-3.6-5.3-3.6-9.5v-21.1c0-2.7-0.5-4.5-1.5-5.4c-1-1-2.9-1.4-5.7-1.4v-10.3
		c2.8,0,4.7-0.5,5.7-1.4c1-1,1.5-2.8,1.5-5.4v-21.1c0-4.2,1.2-7.4,3.6-9.5c2.4-2.1,5.4-3.2,9.2-3.2h6.4v10.3h-1.8
		c-2.1,0-3.6,0.6-4.6,1.8c-1,1.2-1.5,3.3-1.5,6.4V370c0,5.3-2.3,8.7-7,10.1v0.2c4.7,1.4,7,4.7,7,10.1v17.2c0,3.1,0.5,5.2,1.5,6.4
		c1,1.2,2.5,1.8,4.6,1.8h1.8V426h-6.4C329.8,426,326.7,425,324.3,422.8z"/>
	<path class="st0" d="M352.9,416.3c-3.1-3.5-4.7-8.5-4.7-15v-4.6h11.9v5.5c0,5.2,2.2,7.8,6.5,7.8c2.1,0,3.8-0.6,4.9-1.9
		c1.1-1.3,1.7-3.3,1.7-6.1c0-3.4-0.8-6.3-2.3-8.9c-1.5-2.6-4.4-5.6-8.5-9.2c-5.2-4.6-8.8-8.7-10.9-12.4c-2.1-3.7-3.1-7.9-3.1-12.5
		c0-6.3,1.6-11.2,4.8-14.7c3.2-3.5,7.9-5.2,14-5.2c6,0,10.6,1.7,13.7,5.2c3.1,3.5,4.6,8.5,4.6,15v3.3h-11.9v-4.1
		c0-2.7-0.5-4.8-1.6-6s-2.6-1.9-4.7-1.9c-4.2,0-6.3,2.6-6.3,7.7c0,2.9,0.8,5.6,2.3,8.1c1.6,2.5,4.4,5.6,8.5,9.2
		c5.3,4.6,8.9,8.7,10.9,12.5c2,3.7,3,8.1,3,13.2c0,6.6-1.6,11.6-4.9,15.1c-3.2,3.5-8,5.3-14.2,5.3
		C360.6,421.5,356,419.7,352.9,416.3z"/>
	<path class="st0" d="M405.2,340.1h17.1l13.1,80.2h-12.6l-2.3-15.9v0.2h-14.3l-2.3,15.7h-11.7L405.2,340.1z M419,393.7l-5.6-39.7
		h-0.2l-5.5,39.7H419z"/>
	<path class="st0" d="M444.3,340.1h33.3v11.5h-20.7v22.3h16.3v11.5h-16.3v35h-12.6V340.1z"/>
	<path class="st0" d="M486.6,340.1H521v11.5h-21.8v21.2h17.3v11.5h-17.3v24.6H521v11.5h-34.4V340.1z"/>
	<path class="st1" d="M530.4,415.7h1.8c2.1,0,3.6-0.6,4.6-1.8c1-1.2,1.5-3.3,1.5-6.4v-17.2c0-5.3,2.3-8.7,7-10.1v-0.2
		c-4.7-1.4-7-4.7-7-10.1v-17.2c0-3.1-0.5-5.2-1.5-6.4c-1-1.2-2.5-1.8-4.6-1.8h-1.8v-10.3h6.4c3.7,0,6.8,1.1,9.2,3.2
		c2.4,2.1,3.6,5.3,3.6,9.5v21.1c0,2.7,0.5,4.5,1.5,5.4c1,1,2.9,1.4,5.7,1.4v10.3c-2.8,0-4.7,0.5-5.7,1.4c-1,1-1.5,2.8-1.5,5.4v21.1
		c0,4.2-1.2,7.4-3.6,9.5c-2.4,2.1-5.4,3.2-9.2,3.2h-6.4V415.7z"/>
	<path class="st0" d="M569.2,416.3c-3.1-3.5-4.7-8.5-4.7-15v-4.6h11.9v5.5c0,5.2,2.2,7.8,6.5,7.8c2.1,0,3.8-0.6,4.9-1.9
		c1.1-1.3,1.7-3.3,1.7-6.1c0-3.4-0.8-6.3-2.3-8.9c-1.5-2.6-4.4-5.6-8.5-9.2c-5.2-4.6-8.8-8.7-10.9-12.4c-2.1-3.7-3.1-7.9-3.1-12.5
		c0-6.3,1.6-11.2,4.8-14.7c3.2-3.5,7.9-5.2,14-5.2c6,0,10.6,1.7,13.7,5.2c3.1,3.5,4.6,8.5,4.6,15v3.3H590v-4.1c0-2.7-0.5-4.8-1.6-6
		s-2.6-1.9-4.7-1.9c-4.2,0-6.3,2.6-6.3,7.7c0,2.9,0.8,5.6,2.3,8.1c1.6,2.5,4.4,5.6,8.5,9.2c5.3,4.6,8.9,8.7,10.9,12.5
		c2,3.7,3,8.1,3,13.2c0,6.6-1.6,11.6-4.9,15.1c-3.2,3.5-8,5.3-14.2,5.3C577,421.5,572.4,419.7,569.2,416.3z"/>
	<path class="st0" d="M622.1,351.6h-13.2v-11.5h39v11.5h-13.2v68.8h-12.6V351.6z"/>
	<path class="st0" d="M661.3,340.1h17.1l13.1,80.2h-12.6l-2.3-15.9v0.2h-14.3l-2.3,15.7h-11.7L661.3,340.1z M675,393.7l-5.6-39.7
		h-0.2l-5.5,39.7H675z"/>
	<path class="st0" d="M700.3,340.1h12.6v33.8l16-33.8h12.6l-15,29.5l15.2,50.8h-13.2L718,384.6l-5,10.2v25.6h-12.6V340.1z"/>
</g>
<g>
	<g>
		<path class="st1" d="M328.2,459.9c-1.7,0-3.2-0.4-4.4-1.2s-2.1-1.9-2.5-3.3l2.6-1.5c0.7,2,2.2,3,4.5,3c1.1,0,2-0.2,2.5-0.7
			s0.8-1,0.8-1.7c0-0.7-0.3-1.3-0.9-1.7c-0.6-0.4-1.7-0.8-3.2-1.3c-0.8-0.3-1.5-0.6-2.1-0.8c-0.5-0.2-1.1-0.5-1.7-0.9
			c-0.6-0.4-1-0.9-1.3-1.5c-0.3-0.6-0.4-1.3-0.4-2.1c0-1.6,0.6-2.9,1.7-3.8c1.1-0.9,2.5-1.4,4.1-1.4c1.4,0,2.7,0.4,3.8,1.1
			c1.1,0.7,1.9,1.7,2.5,2.9l-2.5,1.4c-0.8-1.7-2-2.5-3.8-2.5c-0.9,0-1.5,0.2-2.1,0.6c-0.5,0.4-0.8,1-0.8,1.6c0,0.7,0.3,1.2,0.8,1.6
			c0.5,0.4,1.5,0.8,2.9,1.2c0.7,0.3,1.2,0.4,1.5,0.6s0.8,0.3,1.4,0.5s1,0.5,1.3,0.7s0.6,0.5,0.9,0.9c0.3,0.4,0.6,0.8,0.7,1.3
			c0.1,0.5,0.2,1,0.2,1.6c0,1.6-0.6,2.9-1.8,3.9C331.7,459.5,330.1,459.9,328.2,459.9z"/>
		<path class="st1" d="M342.2,454.3c0.2,1,0.7,1.7,1.4,2.3c0.7,0.5,1.6,0.8,2.7,0.8c1.5,0,2.6-0.5,3.3-1.6l2.3,1.3
			c-1.3,1.9-3.2,2.8-5.6,2.8c-2.1,0-3.8-0.6-5.1-1.9c-1.3-1.3-1.9-2.9-1.9-4.9c0-1.9,0.6-3.5,1.9-4.8c1.3-1.3,2.9-1.9,4.9-1.9
			c1.9,0,3.4,0.7,4.7,2c1.2,1.3,1.8,2.9,1.8,4.8c0,0.3,0,0.7-0.1,1.2H342.2z M342.2,452.1h7.6c-0.2-1-0.6-1.8-1.3-2.4
			c-0.7-0.5-1.5-0.8-2.4-0.8c-1,0-1.9,0.3-2.6,0.9C342.8,450.3,342.4,451.1,342.2,452.1z"/>
		<path class="st1" d="M363.8,459.9c-1.9,0-3.6-0.7-4.9-2c-1.3-1.3-1.9-2.9-1.9-4.8c0-1.9,0.6-3.5,1.9-4.8s2.9-1.9,4.9-1.9
			c1.3,0,2.4,0.3,3.4,0.9c1,0.6,1.8,1.4,2.3,2.4l-2.4,1.4c-0.3-0.6-0.7-1.1-1.3-1.5c-0.6-0.4-1.3-0.5-2.1-0.5
			c-1.1,0-2.1,0.4-2.9,1.2c-0.8,0.8-1.1,1.7-1.1,2.9s0.4,2.1,1.1,2.9c0.8,0.8,1.7,1.2,2.9,1.2c0.8,0,1.4-0.2,2.1-0.5
			s1.1-0.8,1.4-1.4l2.4,1.4c-0.6,1-1.3,1.8-2.4,2.5C366.2,459.6,365,459.9,363.8,459.9z"/>
		<path class="st1" d="M383.1,446.7h2.8v12.9h-2.8v-1.7c-0.8,1.3-2.2,2-4,2c-1.5,0-2.7-0.5-3.6-1.4c-0.9-0.9-1.4-2.2-1.4-3.9v-7.9
			h2.8v7.6c0,1,0.3,1.7,0.8,2.2c0.5,0.5,1.2,0.8,2.1,0.8c1,0,1.8-0.3,2.4-0.9c0.6-0.6,0.9-1.5,0.9-2.8V446.7z"/>
		<path class="st1" d="M394.6,448.9c0.7-1.6,2-2.4,4-2.4v3c-1.1-0.1-2,0.2-2.8,0.8s-1.2,1.5-1.2,2.9v6.5h-2.8v-12.9h2.8V448.9z"/>
		<path class="st1" d="M405,454.3c0.2,1,0.7,1.7,1.4,2.3c0.7,0.5,1.6,0.8,2.7,0.8c1.5,0,2.6-0.5,3.3-1.6l2.3,1.3
			c-1.3,1.9-3.2,2.8-5.6,2.8c-2.1,0-3.8-0.6-5.1-1.9c-1.3-1.3-1.9-2.9-1.9-4.9c0-1.9,0.6-3.5,1.9-4.8c1.3-1.3,2.9-1.9,4.9-1.9
			c1.9,0,3.4,0.7,4.7,2c1.2,1.3,1.8,2.9,1.8,4.8c0,0.3,0,0.7-0.1,1.2H405z M404.9,452.1h7.6c-0.2-1-0.6-1.8-1.3-2.4
			c-0.7-0.5-1.5-0.8-2.4-0.8c-1,0-1.9,0.3-2.6,0.9C405.6,450.3,405.1,451.1,404.9,452.1z"/>
		<path class="st1" d="M436.9,441.5c2.5,0,4.5,0.9,6.2,2.6s2.5,3.9,2.5,6.4c0,2.5-0.8,4.7-2.5,6.4c-1.6,1.7-3.7,2.6-6.2,2.6h-7.1
			v-18.1H436.9z M436.9,456.8c1.7,0,3.1-0.6,4.2-1.8c1.1-1.2,1.6-2.6,1.6-4.4c0-1.8-0.5-3.3-1.6-4.5s-2.5-1.7-4.2-1.7h-4.1v12.4
			H436.9z"/>
		<path class="st1" d="M453,454.3c0.2,1,0.7,1.7,1.4,2.3c0.7,0.5,1.6,0.8,2.7,0.8c1.5,0,2.6-0.5,3.3-1.6l2.3,1.3
			c-1.3,1.9-3.2,2.8-5.6,2.8c-2.1,0-3.8-0.6-5.1-1.9c-1.3-1.3-1.9-2.9-1.9-4.9c0-1.9,0.6-3.5,1.9-4.8c1.3-1.3,2.9-1.9,4.9-1.9
			c1.9,0,3.4,0.7,4.7,2c1.2,1.3,1.8,2.9,1.8,4.8c0,0.3,0,0.7-0.1,1.2H453z M453,452.1h7.6c-0.2-1-0.6-1.8-1.3-2.4
			c-0.7-0.5-1.5-0.8-2.4-0.8c-1,0-1.9,0.3-2.6,0.9C453.6,450.3,453.2,451.1,453,452.1z"/>
		<path class="st1" d="M468.5,459.6v-18.8h2.8v18.8H468.5z"/>
		<path class="st1" d="M479.4,454.3c0.2,1,0.7,1.7,1.4,2.3c0.7,0.5,1.6,0.8,2.7,0.8c1.5,0,2.6-0.5,3.3-1.6l2.3,1.3
			c-1.3,1.9-3.2,2.8-5.6,2.8c-2.1,0-3.8-0.6-5.1-1.9c-1.3-1.3-1.9-2.9-1.9-4.9c0-1.9,0.6-3.5,1.9-4.8c1.3-1.3,2.9-1.9,4.9-1.9
			c1.9,0,3.4,0.7,4.7,2c1.2,1.3,1.8,2.9,1.8,4.8c0,0.3,0,0.7-0.1,1.2H479.4z M479.4,452.1h7.6c-0.2-1-0.6-1.8-1.3-2.4
			c-0.7-0.5-1.5-0.8-2.4-0.8c-1,0-1.9,0.3-2.6,0.9C480,450.3,479.6,451.1,479.4,452.1z"/>
		<path class="st1" d="M505.2,446.7h2.7V459c0,2-0.6,3.5-1.9,4.5c-1.3,1-2.9,1.6-4.7,1.6c-3,0-5-1-6.1-3.1l2.4-1.4
			c0.7,1.3,1.9,2,3.8,2c1.2,0,2.1-0.3,2.8-0.9c0.7-0.6,1-1.5,1-2.6v-1.6c-1,1.5-2.5,2.2-4.5,2.2c-1.8,0-3.4-0.6-4.6-1.9
			s-1.9-2.9-1.9-4.7c0-1.8,0.6-3.4,1.9-4.7s2.8-1.9,4.6-1.9c1.9,0,3.4,0.7,4.5,2.2V446.7z M498.1,455.9c0.8,0.8,1.8,1.2,2.9,1.2
			c1.2,0,2.1-0.4,2.9-1.2s1.2-1.7,1.2-2.9s-0.4-2.1-1.2-2.9c-0.8-0.8-1.8-1.2-2.9-1.2c-1.2,0-2.1,0.4-2.9,1.2
			c-0.8,0.8-1.2,1.7-1.2,2.9S497.4,455.1,498.1,455.9z"/>
		<path class="st1" d="M524.1,446.7h2.8v12.9h-2.8v-1.9c-1,1.5-2.6,2.2-4.5,2.2c-1.8,0-3.3-0.7-4.5-2c-1.3-1.3-1.9-2.9-1.9-4.8
			c0-1.9,0.6-3.5,1.9-4.8c1.3-1.3,2.8-2,4.5-2c2,0,3.5,0.7,4.5,2.2V446.7z M517.1,456.1c0.8,0.8,1.7,1.2,2.9,1.2s2.1-0.4,2.9-1.2
			c0.8-0.8,1.2-1.8,1.2-3s-0.4-2.2-1.2-3c-0.8-0.8-1.7-1.2-2.9-1.2s-2.1,0.4-2.9,1.2c-0.8,0.8-1.2,1.8-1.2,3
			S516.3,455.3,517.1,456.1z"/>
		<path class="st1" d="M540,449.4h-3.2v6.2c0,0.5,0.1,0.9,0.4,1.1s0.6,0.4,1.1,0.4c0.5,0,1.1,0,1.8,0v2.5c-2.1,0.3-3.7,0.1-4.6-0.6
			s-1.4-1.8-1.4-3.5v-6.2h-2.4v-2.7h2.4v-2.8l2.8-0.8v3.6h3.2V449.4z"/>
		<path class="st1" d="M547.9,444.2c-0.4,0.4-0.8,0.5-1.3,0.5s-0.9-0.2-1.3-0.5c-0.4-0.4-0.5-0.8-0.5-1.3s0.2-0.9,0.5-1.3
			c0.3-0.4,0.8-0.5,1.3-0.5s0.9,0.2,1.3,0.5c0.3,0.4,0.5,0.8,0.5,1.3S548.3,443.9,547.9,444.2z M545.3,459.6v-12.9h2.8v12.9H545.3z"
			/>
		<path class="st1" d="M560.1,459.9c-1.9,0-3.5-0.7-4.8-2c-1.3-1.3-2-2.9-2-4.8s0.7-3.5,2-4.8c1.3-1.3,2.9-2,4.8-2
			c1.9,0,3.5,0.7,4.8,2c1.3,1.3,2,2.9,2,4.8s-0.7,3.5-2,4.8C563.6,459.3,562,459.9,560.1,459.9z M557.2,456.1
			c0.8,0.8,1.7,1.2,2.9,1.2c1.1,0,2.1-0.4,2.9-1.2c0.8-0.8,1.2-1.7,1.2-2.9c0-1.2-0.4-2.1-1.2-2.9c-0.8-0.8-1.7-1.2-2.9-1.2
			c-1.1,0-2.1,0.4-2.9,1.2c-0.8,0.8-1.2,1.7-1.2,2.9C556,454.3,556.4,455.3,557.2,456.1z"/>
		<path class="st1" d="M578.9,446.4c1.5,0,2.7,0.5,3.6,1.4c0.9,0.9,1.4,2.2,1.4,3.9v7.9h-2.8V452c0-1-0.3-1.7-0.8-2.2
			c-0.5-0.5-1.2-0.8-2.1-0.8c-1,0-1.8,0.3-2.4,0.9c-0.6,0.6-0.9,1.5-0.9,2.8v6.9h-2.8v-12.9h2.8v1.7
			C575.7,447,577.1,446.4,578.9,446.4z"/>
		<path class="st1" d="M613.7,458.7l-2.4,1.4l-1.7-1.8c-1.4,1.1-3.1,1.7-5,1.7c-1.8,0-3.3-0.5-4.5-1.4c-1.1-0.9-1.7-2.2-1.7-3.9
			c0-1.1,0.3-2.1,0.8-3c0.5-0.9,1.3-1.6,2.4-2.2c-0.7-0.9-1-2-1-3.1c0-1.5,0.5-2.7,1.6-3.7c1.1-0.9,2.4-1.4,3.9-1.4
			c1.2,0,2.4,0.3,3.4,1c1,0.7,1.7,1.6,2.2,2.8l-2.5,1.4c-0.2-0.7-0.6-1.3-1.2-1.7c-0.5-0.4-1.2-0.6-1.9-0.6c-0.7,0-1.3,0.2-1.8,0.6
			c-0.5,0.4-0.7,1-0.7,1.7c0,0.4,0.1,0.7,0.2,1.1c0.2,0.4,0.3,0.7,0.5,0.9c0.2,0.2,0.5,0.5,0.8,0.9l4.4,4.8c0.4-0.9,0.7-1.9,0.9-3.1
			l2.5,1.4c-0.3,1.4-0.8,2.7-1.5,3.8L613.7,458.7z M604.7,457.2c1.2,0,2.1-0.3,3-1l-4.4-4.8c-1.3,0.6-1.9,1.6-1.9,3
			c0,0.8,0.3,1.5,0.9,2S603.7,457.2,604.7,457.2z"/>
		<path class="st1" d="M638.3,459.6l-3.8-6.6H631v6.6h-3v-18.1h7.2c1.6,0,3,0.6,4.1,1.7c1.1,1.1,1.7,2.5,1.7,4.1
			c0,1.2-0.3,2.2-1,3.2c-0.7,1-1.5,1.6-2.6,2.1l4.1,7H638.3z M631,444.3v6h4.3c0.8,0,1.5-0.3,2-0.9c0.6-0.6,0.8-1.3,0.8-2.1
			s-0.3-1.6-0.8-2.1c-0.5-0.6-1.2-0.9-2-0.9H631z"/>
		<path class="st1" d="M647.9,454.3c0.2,1,0.7,1.7,1.4,2.3c0.7,0.5,1.6,0.8,2.7,0.8c1.5,0,2.6-0.5,3.3-1.6l2.3,1.3
			c-1.3,1.9-3.2,2.8-5.6,2.8c-2.1,0-3.8-0.6-5.1-1.9c-1.3-1.3-1.9-2.9-1.9-4.9c0-1.9,0.6-3.5,1.9-4.8c1.3-1.3,2.9-1.9,4.9-1.9
			c1.9,0,3.4,0.7,4.7,2c1.2,1.3,1.8,2.9,1.8,4.8c0,0.3,0,0.7-0.1,1.2H647.9z M647.8,452.1h7.6c-0.2-1-0.6-1.8-1.3-2.4
			c-0.7-0.5-1.5-0.8-2.4-0.8c-1,0-1.9,0.3-2.6,0.9C648.5,450.3,648,451.1,647.8,452.1z"/>
		<path class="st1" d="M677.7,446.7h2.9l-4.1,12.9h-2.7l-2.7-8.8l-2.7,8.8h-3l-3.8-12.9h2.9l2.5,8.9l2.7-8.9h2.7l2.7,8.9
			L677.7,446.7z"/>
		<path class="st1" d="M695.2,446.7h2.8v12.9h-2.8v-1.9c-1,1.5-2.6,2.2-4.5,2.2c-1.8,0-3.3-0.7-4.5-2c-1.3-1.3-1.9-2.9-1.9-4.8
			c0-1.9,0.6-3.5,1.9-4.8c1.3-1.3,2.8-2,4.5-2c2,0,3.5,0.7,4.5,2.2V446.7z M688.2,456.1c0.8,0.8,1.7,1.2,2.9,1.2s2.1-0.4,2.9-1.2
			c0.8-0.8,1.2-1.8,1.2-3s-0.4-2.2-1.2-3c-0.8-0.8-1.7-1.2-2.9-1.2s-2.1,0.4-2.9,1.2c-0.8,0.8-1.2,1.8-1.2,3
			S687.4,455.3,688.2,456.1z"/>
		<path class="st1" d="M706.7,448.9c0.7-1.6,2-2.4,4-2.4v3c-1.1-0.1-2,0.2-2.8,0.8s-1.2,1.5-1.2,2.9v6.5h-2.8v-12.9h2.8V448.9z"/>
		<path class="st1" d="M725.1,441.5h2.8v18.1h-2.8v-1.9c-1,1.5-2.6,2.2-4.5,2.2c-1.8,0-3.3-0.7-4.5-2c-1.3-1.3-1.9-2.9-1.9-4.8
			c0-1.9,0.6-3.5,1.9-4.8c1.3-1.3,2.8-2,4.5-2c2,0,3.5,0.7,4.5,2.2V441.5z M718.1,456.1c0.8,0.8,1.7,1.2,2.9,1.2s2.1-0.4,2.9-1.2
			c0.8-0.8,1.2-1.8,1.2-3s-0.4-2.2-1.2-3c-0.8-0.8-1.7-1.2-2.9-1.2s-2.1,0.4-2.9,1.2c-0.8,0.8-1.2,1.8-1.2,3
			S717.3,455.3,718.1,456.1z"/>
		<path class="st1" d="M736.2,450.2c0,0.4,0.2,0.8,0.7,1s1,0.5,1.7,0.7c0.7,0.2,1.4,0.4,2.1,0.6s1.3,0.6,1.8,1.2
			c0.5,0.6,0.7,1.3,0.7,2.2c0,1.2-0.5,2.2-1.4,2.9c-1,0.7-2.2,1.1-3.6,1.1c-1.3,0-2.4-0.3-3.3-0.8c-0.9-0.5-1.6-1.3-2-2.2l2.4-1.4
			c0.4,1.2,1.4,1.9,2.9,1.9s2.2-0.5,2.2-1.4c0-0.4-0.2-0.7-0.7-1s-1-0.5-1.7-0.7c-0.7-0.2-1.4-0.4-2.1-0.6c-0.7-0.2-1.3-0.6-1.8-1.2
			c-0.5-0.6-0.7-1.3-0.7-2.1c0-1.2,0.5-2.1,1.4-2.9c0.9-0.7,2-1.1,3.4-1.1c1.1,0,2,0.2,2.9,0.7c0.8,0.5,1.5,1.1,1.9,2l-2.3,1.3
			c-0.4-1-1.3-1.5-2.4-1.5c-0.5,0-1,0.1-1.3,0.3C736.4,449.5,736.2,449.8,736.2,450.2z"/>
	</g>
</g>
</svg>
